<svg id="svg" version="1.1" xmlns="http://www.w3.org/2000/svg" xmlns:xlink="http://www.w3.org/1999/xlink" width="400" height="213.9223560910308" viewBox="0, 0, 400,213.9223560910308"><g id="svgg"><path id="path0" d="M181.019 37.725 C 180.066 38.615,180.057 38.674,180.566 40.679 C 180.775 41.498,181.149 43.133,181.399 44.311 C 181.649 45.489,182.031 47.236,182.248 48.193 C 182.902 51.073,183.336 53.033,183.818 55.288 C 184.591 58.901,184.967 59.900,185.621 60.075 C 188.264 60.784,189.000 58.905,187.812 54.485 C 187.614 53.748,187.252 52.182,187.008 51.004 C 186.763 49.826,186.404 48.199,186.209 47.390 C 186.014 46.580,185.657 44.953,185.417 43.775 C 184.038 37.025,183.120 35.762,181.019 37.725 M230.475 44.416 C 230.236 44.695,229.952 45.207,229.844 45.554 C 229.735 45.901,229.573 46.245,229.482 46.319 C 229.330 46.443,228.637 47.673,227.595 49.665 C 227.364 50.107,227.115 50.528,227.041 50.602 C 226.816 50.828,226.208 51.940,224.480 55.288 C 223.568 57.055,222.313 59.484,221.693 60.686 C 220.155 63.663,220.556 65.042,222.961 65.057 C 223.966 65.063,224.393 64.375,229.197 55.020 C 230.256 52.959,231.524 50.549,232.016 49.665 C 233.914 46.254,234.116 45.361,233.199 44.444 C 232.508 43.753,231.056 43.737,230.475 44.416 M204.872 46.315 C 204.129 46.935,203.798 48.460,203.478 52.744 C 203.351 54.437,203.175 56.211,203.086 56.685 C 202.666 58.923,205.479 60.506,206.613 58.669 C 207.599 57.072,207.979 47.432,207.093 46.476 C 206.334 45.657,205.715 45.612,204.872 46.315 M162.268 56.127 C 161.963 56.515,161.714 57.031,161.714 57.274 C 161.714 57.745,165.880 64.062,166.290 64.212 C 166.424 64.261,166.533 64.417,166.533 64.558 C 166.533 66.306,169.534 67.836,170.814 66.741 C 171.734 65.953,171.151 63.231,169.946 62.695 C 169.836 62.646,169.746 62.435,169.746 62.227 C 169.746 62.018,169.632 61.847,169.493 61.847 C 169.243 61.847,168.582 60.817,168.249 59.906 C 168.154 59.649,167.981 59.438,167.863 59.438 C 167.746 59.438,167.293 58.857,166.856 58.148 C 165.093 55.282,163.489 54.576,162.268 56.127 M138.966 63.772 C 138.142 64.657,138.264 65.760,139.290 66.710 C 140.788 68.097,141.003 68.273,141.200 68.273 C 141.305 68.273,141.670 68.574,142.011 68.942 C 142.353 69.311,142.718 69.612,142.824 69.612 C 142.987 69.612,144.829 71.013,145.817 71.888 C 145.983 72.035,146.386 72.336,146.712 72.557 C 147.039 72.778,147.565 73.167,147.883 73.422 C 148.201 73.677,148.582 73.978,148.731 74.091 C 148.880 74.205,149.563 74.749,150.249 75.301 C 150.935 75.853,151.572 76.305,151.664 76.305 C 151.757 76.305,152.098 76.576,152.422 76.908 C 153.190 77.692,154.654 78.715,155.009 78.715 C 155.162 78.715,155.288 78.835,155.288 78.983 C 155.288 79.775,157.671 78.603,157.737 77.778 C 157.820 76.758,157.655 75.903,157.342 75.726 C 157.170 75.628,156.667 75.231,156.225 74.844 C 155.783 74.457,155.084 73.874,154.671 73.549 C 154.257 73.224,153.696 72.778,153.424 72.557 C 153.151 72.336,152.661 71.975,152.335 71.754 C 152.009 71.533,151.606 71.232,151.439 71.084 C 150.452 70.209,148.609 68.809,148.446 68.809 C 148.341 68.809,147.975 68.507,147.634 68.139 C 147.293 67.771,146.938 67.470,146.845 67.470 C 146.700 67.470,144.802 66.015,143.875 65.194 C 143.709 65.047,143.306 64.746,142.980 64.525 C 142.653 64.304,142.138 63.912,141.835 63.655 C 141.057 62.994,139.637 63.052,138.966 63.772 M223.427 77.573 C 220.387 79.117,219.154 82.162,219.932 86.205 C 220.146 87.313,220.517 89.424,220.759 90.897 C 221.000 92.369,221.361 94.538,221.560 95.716 C 221.760 96.894,222.121 99.063,222.363 100.535 C 222.606 102.008,222.972 104.177,223.177 105.355 C 223.383 106.533,223.741 108.641,223.974 110.040 C 224.206 111.439,224.565 113.548,224.771 114.726 C 224.977 115.904,225.339 118.012,225.576 119.411 C 225.813 120.810,226.174 122.918,226.378 124.096 C 226.582 125.274,226.814 126.740,226.894 127.353 C 227.103 128.945,227.916 130.692,228.875 131.607 C 230.246 132.915,230.478 133.070,231.326 133.240 C 231.773 133.329,232.205 133.507,232.284 133.636 C 232.473 133.942,234.731 133.938,234.921 133.631 C 235.002 133.501,235.491 133.315,236.008 133.218 C 236.525 133.121,236.948 132.934,236.948 132.804 C 236.948 132.673,237.160 132.499,237.419 132.417 C 238.463 132.085,239.855 129.202,240.021 127.028 C 240.093 126.081,240.424 125.837,241.633 125.837 C 242.278 125.837,242.872 125.731,242.952 125.601 C 243.032 125.471,244.034 125.278,245.177 125.172 C 246.320 125.067,247.376 124.887,247.523 124.773 C 247.671 124.660,248.695 124.481,249.799 124.376 C 250.904 124.271,251.928 124.090,252.075 123.975 C 252.222 123.859,252.789 123.684,253.335 123.586 C 253.881 123.487,254.665 123.232,255.076 123.017 C 255.487 122.803,255.974 122.626,256.158 122.625 C 256.342 122.625,256.493 122.503,256.493 122.356 C 256.493 122.209,256.655 122.088,256.853 122.088 C 257.052 122.088,257.462 121.878,257.765 121.620 C 258.069 121.362,258.590 120.971,258.924 120.750 C 259.605 120.299,262.232 117.703,263.052 116.670 C 264.815 114.450,266.620 110.314,267.055 107.497 C 267.396 105.288,267.486 105.077,268.214 104.769 C 268.615 104.600,269.723 104.376,270.676 104.272 C 273.309 103.985,273.731 103.604,273.531 101.688 L 273.368 100.134 274.138 100.134 C 274.809 100.134,274.930 100.257,275.088 101.098 C 275.243 101.926,275.351 102.039,275.854 101.905 C 276.176 101.818,276.658 101.746,276.926 101.744 C 277.263 101.741,277.370 101.596,277.273 101.272 C 276.758 99.539,276.768 99.331,277.365 99.331 C 277.685 99.331,278.165 99.214,278.431 99.072 C 278.852 98.846,278.933 98.952,279.060 99.897 C 279.244 101.267,279.291 101.307,280.467 101.086 C 281.299 100.930,281.421 100.818,281.301 100.318 C 280.722 97.900,280.743 97.724,281.614 97.724 C 282.064 97.724,282.496 97.620,282.575 97.492 C 282.654 97.364,283.441 97.178,284.323 97.078 C 285.206 96.978,285.989 96.797,286.063 96.676 C 286.138 96.555,286.800 96.377,287.533 96.279 C 288.267 96.182,288.931 95.999,289.008 95.873 C 289.086 95.747,289.691 95.563,290.352 95.464 C 291.013 95.365,291.620 95.177,291.700 95.047 C 291.781 94.917,292.386 94.729,293.045 94.630 C 293.704 94.531,294.244 94.354,294.244 94.237 C 294.244 94.119,294.725 93.942,295.313 93.842 C 295.901 93.743,296.442 93.565,296.515 93.447 C 296.588 93.330,297.065 93.155,297.576 93.059 C 298.087 92.963,298.841 92.709,299.252 92.495 C 299.664 92.281,300.204 92.104,300.453 92.103 C 300.702 92.102,300.973 91.992,301.057 91.857 C 301.140 91.723,301.688 91.532,302.276 91.432 C 302.863 91.333,303.405 91.152,303.481 91.031 C 303.556 90.909,304.098 90.728,304.685 90.629 C 305.273 90.530,305.815 90.350,305.889 90.229 C 305.964 90.109,306.627 89.927,307.363 89.826 C 308.099 89.725,308.701 89.550,308.701 89.437 C 308.701 89.199,311.466 88.719,315.158 88.316 C 318.544 87.946,324.288 88.544,325.900 89.435 C 326.156 89.576,326.517 89.696,326.703 89.701 C 326.889 89.706,327.523 89.943,328.112 90.228 C 328.701 90.512,329.394 90.749,329.652 90.754 C 329.910 90.759,330.120 90.870,330.120 91.002 C 330.120 91.133,330.421 91.316,330.788 91.408 C 331.155 91.500,332.345 92.116,333.432 92.776 C 334.520 93.436,335.545 93.976,335.710 93.976 C 335.875 93.976,336.011 94.096,336.011 94.244 C 336.011 94.391,336.183 94.511,336.393 94.511 C 336.604 94.511,336.941 94.662,337.142 94.846 C 337.480 95.154,338.680 95.849,340.696 96.903 C 341.138 97.134,341.560 97.403,341.636 97.502 C 341.711 97.601,342.103 97.765,342.506 97.866 C 342.910 97.967,343.240 98.148,343.240 98.267 C 343.240 98.387,343.601 98.564,344.043 98.661 C 344.485 98.758,344.846 98.939,344.846 99.063 C 344.846 99.187,345.207 99.367,345.649 99.465 C 346.091 99.562,346.452 99.752,346.452 99.887 C 346.452 100.023,346.580 100.134,346.735 100.134 C 346.990 100.134,347.953 100.529,350.375 101.626 C 350.839 101.836,351.411 102.008,351.647 102.008 C 351.882 102.008,352.075 102.115,352.075 102.246 C 352.075 102.377,352.492 102.562,353.001 102.658 C 353.510 102.753,354.263 103.007,354.674 103.221 C 355.085 103.436,355.753 103.612,356.158 103.613 C 356.563 103.614,356.894 103.724,356.894 103.857 C 356.894 103.991,357.527 104.185,358.300 104.289 C 359.073 104.393,359.826 104.574,359.973 104.692 C 361.402 105.835,376.167 105.830,377.644 104.686 C 377.791 104.572,378.423 104.394,379.048 104.291 C 379.673 104.188,380.246 104.004,380.321 103.882 C 380.396 103.761,380.939 103.580,381.528 103.480 C 382.116 103.381,382.597 103.190,382.597 103.055 C 382.597 102.921,382.755 102.811,382.948 102.811 C 383.141 102.811,384.155 102.390,385.201 101.874 C 386.247 101.359,387.170 100.937,387.253 100.937 C 387.558 100.937,392.640 98.386,392.728 98.190 C 392.777 98.077,393.458 97.683,394.240 97.313 C 395.022 96.943,395.804 96.468,395.979 96.257 C 396.154 96.047,396.859 95.545,397.546 95.143 C 398.233 94.741,398.954 94.254,399.149 94.060 C 399.344 93.867,399.615 93.708,399.751 93.708 C 399.893 93.708,399.998 92.014,399.996 89.759 C 399.994 87.587,399.903 85.937,399.795 86.092 C 399.687 86.247,399.072 86.644,398.430 86.974 C 397.787 87.304,397.085 87.749,396.871 87.964 C 396.657 88.178,396.309 88.353,396.099 88.353 C 395.888 88.353,395.716 88.446,395.716 88.560 C 395.716 88.673,395.144 89.065,394.444 89.430 C 393.745 89.795,393.112 90.161,393.039 90.244 C 392.747 90.572,389.603 92.369,389.322 92.369 C 389.158 92.369,389.023 92.488,389.023 92.632 C 389.023 92.777,388.722 92.970,388.353 93.063 C 387.985 93.155,387.682 93.308,387.679 93.403 C 387.675 93.497,387.015 93.876,386.212 94.244 C 385.408 94.612,384.748 95.003,384.745 95.114 C 384.741 95.224,384.612 95.315,384.457 95.315 C 384.301 95.315,383.608 95.564,382.917 95.869 C 382.226 96.175,381.238 96.602,380.723 96.819 C 380.207 97.037,379.590 97.321,379.350 97.451 C 379.111 97.581,378.448 97.772,377.878 97.875 C 377.307 97.978,376.717 98.159,376.566 98.277 C 376.415 98.396,375.632 98.570,374.826 98.664 C 374.020 98.758,373.114 98.954,372.814 99.098 C 371.699 99.635,361.878 98.971,360.615 98.274 C 360.379 98.143,359.626 97.953,358.942 97.850 C 358.257 97.747,357.697 97.570,357.697 97.456 C 357.697 97.342,357.281 97.170,356.772 97.075 C 356.263 96.979,355.509 96.726,355.098 96.511 C 354.687 96.297,354.198 96.120,354.012 96.119 C 353.826 96.119,353.465 96.002,353.209 95.859 C 352.371 95.394,350.236 94.511,349.948 94.511 C 349.792 94.511,349.665 94.400,349.665 94.265 C 349.665 94.129,349.304 93.939,348.862 93.842 C 348.420 93.745,348.059 93.564,348.059 93.440 C 348.059 93.317,347.697 93.136,347.256 93.039 C 346.814 92.942,346.452 92.761,346.452 92.637 C 346.452 92.513,346.091 92.333,345.649 92.236 C 345.207 92.139,344.846 91.958,344.846 91.834 C 344.846 91.710,344.485 91.529,344.043 91.432 C 343.601 91.335,343.240 91.145,343.240 91.010 C 343.240 90.874,343.068 90.763,342.857 90.763 C 342.647 90.763,342.310 90.598,342.108 90.397 C 341.907 90.195,341.477 89.946,341.152 89.843 C 340.828 89.740,340.562 89.544,340.562 89.406 C 340.562 89.269,340.390 89.157,340.180 89.157 C 339.969 89.157,339.632 89.006,339.431 88.822 C 339.093 88.514,337.893 87.819,335.877 86.765 C 335.435 86.534,335.012 86.265,334.937 86.166 C 334.862 86.067,334.470 85.903,334.067 85.802 C 333.663 85.701,333.333 85.516,333.333 85.391 C 333.333 85.267,332.912 85.086,332.396 84.989 C 331.881 84.892,331.459 84.706,331.459 84.575 C 331.459 84.444,331.248 84.337,330.991 84.336 C 330.733 84.335,330.199 84.165,329.804 83.959 C 329.409 83.753,328.686 83.499,328.197 83.395 C 327.709 83.290,327.189 83.110,327.041 82.994 C 326.733 82.752,324.242 82.288,321.151 81.897 C 318.879 81.610,312.239 81.818,311.782 82.190 C 311.634 82.311,310.699 82.497,309.705 82.602 C 308.712 82.707,307.898 82.886,307.898 82.999 C 307.898 83.112,307.238 83.287,306.430 83.388 C 305.622 83.489,304.899 83.673,304.822 83.797 C 304.745 83.921,304.202 84.104,303.614 84.203 C 303.027 84.303,302.485 84.483,302.410 84.605 C 302.334 84.727,301.792 84.907,301.205 85.007 C 300.617 85.106,300.077 85.283,300.004 85.401 C 299.932 85.519,299.454 85.694,298.943 85.790 C 298.433 85.885,297.678 86.139,297.267 86.354 C 296.856 86.568,296.316 86.744,296.067 86.745 C 295.818 86.746,295.546 86.857,295.463 86.991 C 295.380 87.126,294.831 87.317,294.244 87.416 C 293.656 87.516,293.114 87.696,293.039 87.818 C 292.964 87.940,292.421 88.120,291.834 88.220 C 291.247 88.319,290.702 88.503,290.624 88.629 C 290.547 88.755,289.942 88.939,289.281 89.038 C 288.620 89.137,288.018 89.318,287.942 89.440 C 287.867 89.562,287.265 89.742,286.604 89.841 C 285.943 89.941,285.341 90.120,285.267 90.240 C 285.193 90.360,284.441 90.541,283.597 90.643 C 282.752 90.746,281.919 90.943,281.744 91.082 C 281.130 91.572,279.660 91.221,279.566 90.562 C 279.507 90.146,279.300 89.961,278.897 89.964 C 277.875 89.971,277.510 90.408,277.510 91.627 C 277.510 93.363,275.960 93.536,275.506 91.850 C 275.234 90.839,275.148 90.763,274.265 90.763 L 273.316 90.763 273.405 92.001 C 273.578 94.403,272.230 94.313,271.865 91.898 C 271.727 90.987,271.562 90.725,271.046 90.596 C 270.195 90.382,266.353 90.744,265.947 91.077 C 265.448 91.485,264.208 91.220,263.882 90.635 C 263.720 90.344,263.460 89.983,263.305 89.832 C 263.149 89.681,262.702 89.121,262.311 88.586 C 261.920 88.051,261.158 87.208,260.616 86.712 C 260.075 86.216,259.441 85.599,259.208 85.341 C 258.974 85.084,258.681 84.873,258.556 84.873 C 258.431 84.873,258.161 84.722,257.955 84.538 C 257.204 83.864,256.868 83.656,255.556 83.049 C 254.819 82.708,254.032 82.332,253.806 82.213 C 253.581 82.093,252.978 81.906,252.468 81.797 C 251.957 81.688,251.370 81.461,251.164 81.294 C 250.648 80.878,242.514 80.885,242.004 81.302 C 241.800 81.470,240.669 81.693,239.491 81.799 C 238.313 81.905,237.229 82.086,237.082 82.201 C 236.934 82.316,235.886 82.496,234.752 82.601 L 232.689 82.791 232.500 82.025 C 231.575 78.282,226.722 75.900,223.427 77.573 M166.198 87.467 C 165.940 87.534,165.730 87.701,165.730 87.838 C 165.730 87.974,165.572 88.086,165.380 88.086 C 164.499 88.086,162.678 90.771,162.384 92.503 C 162.040 94.529,162.129 94.452,159.895 94.656 C 158.760 94.759,157.711 94.936,157.564 95.049 C 157.416 95.162,156.392 95.342,155.288 95.449 C 154.183 95.556,153.159 95.720,153.012 95.814 C 152.865 95.907,151.780 96.131,150.602 96.311 C 144.068 97.309,143.140 97.546,142.206 98.457 C 141.494 99.150,140.818 101.078,140.987 101.934 C 141.160 102.815,140.489 103.189,138.250 103.459 C 137.028 103.606,135.308 104.234,134.940 104.667 C 134.866 104.753,134.355 105.124,133.804 105.491 C 133.253 105.858,132.801 106.309,132.800 106.493 C 132.799 106.677,132.707 106.827,132.597 106.827 C 131.455 106.827,130.311 112.114,130.902 114.659 C 131.122 115.605,131.098 115.663,130.490 115.663 C 130.136 115.663,129.636 115.777,129.381 115.917 C 129.125 116.057,128.222 116.247,127.375 116.338 C 125.515 116.539,125.161 116.998,125.410 118.881 C 125.564 120.041,125.527 120.163,124.971 120.312 C 124.056 120.557,123.963 120.526,123.963 119.968 C 123.963 118.950,123.656 118.608,122.745 118.608 C 121.638 118.608,121.478 118.849,121.860 119.944 C 122.207 120.941,121.914 121.274,120.683 121.281 C 120.116 121.284,119.946 121.158,119.946 120.732 C 119.946 119.644,119.516 119.239,118.487 119.359 L 117.526 119.471 117.700 120.780 C 117.869 122.052,117.854 122.088,117.186 122.088 C 116.807 122.088,116.433 122.193,116.354 122.321 C 116.275 122.449,115.488 122.635,114.606 122.735 C 113.724 122.835,112.940 123.015,112.866 123.136 C 112.791 123.257,112.129 123.436,111.396 123.533 C 110.662 123.631,109.997 123.816,109.917 123.945 C 109.837 124.074,109.170 124.263,108.433 124.364 C 107.697 124.465,107.095 124.650,107.095 124.774 C 107.095 124.899,106.553 125.082,105.890 125.181 C 105.228 125.281,104.685 125.455,104.685 125.569 C 104.685 125.683,104.143 125.857,103.481 125.957 C 102.818 126.056,102.276 126.237,102.276 126.359 C 102.276 126.481,101.859 126.658,101.350 126.754 C 100.841 126.849,100.088 127.103,99.677 127.318 C 99.265 127.532,98.725 127.708,98.476 127.709 C 98.227 127.710,97.956 127.821,97.872 127.955 C 97.789 128.090,97.241 128.281,96.653 128.380 C 96.066 128.479,95.524 128.660,95.448 128.782 C 95.373 128.903,94.831 129.084,94.244 129.183 C 93.656 129.283,93.114 129.463,93.040 129.583 C 92.965 129.704,92.302 129.885,91.566 129.987 C 90.830 130.088,90.228 130.263,90.228 130.376 C 90.228 130.593,87.744 131.044,84.203 131.470 C 81.981 131.737,76.640 131.551,76.171 131.190 C 76.024 131.077,75.271 130.899,74.498 130.795 C 73.725 130.691,73.025 130.497,72.943 130.363 C 72.861 130.230,72.589 130.116,72.340 130.111 C 72.091 130.106,71.406 129.870,70.817 129.585 C 70.228 129.300,69.535 129.064,69.277 129.059 C 69.019 129.054,68.809 128.942,68.809 128.811 C 68.809 128.680,68.478 128.489,68.075 128.388 C 67.671 128.287,67.280 128.123,67.204 128.024 C 67.080 127.862,66.198 127.360,63.868 126.123 C 63.433 125.892,62.912 125.552,62.711 125.368 C 62.509 125.184,62.172 125.033,61.962 125.033 C 61.752 125.033,61.580 124.921,61.580 124.784 C 61.580 124.646,61.314 124.450,60.990 124.347 C 60.665 124.244,60.235 123.995,60.034 123.793 C 59.832 123.592,59.495 123.427,59.285 123.427 C 59.074 123.427,58.902 123.316,58.902 123.181 C 58.902 123.045,58.541 122.855,58.099 122.758 C 57.657 122.661,57.296 122.480,57.296 122.356 C 57.296 122.232,56.934 122.052,56.493 121.954 C 56.051 121.857,55.689 121.677,55.689 121.553 C 55.689 121.429,55.328 121.248,54.886 121.151 C 54.444 121.054,54.083 120.874,54.083 120.750 C 54.083 120.626,53.722 120.445,53.280 120.348 C 52.838 120.251,52.477 120.070,52.477 119.946 C 52.477 119.823,52.115 119.642,51.673 119.545 C 51.232 119.448,50.870 119.263,50.870 119.134 C 50.870 119.005,50.448 118.821,49.933 118.724 C 49.418 118.627,48.996 118.441,48.996 118.310 C 48.996 118.179,48.785 118.068,48.527 118.063 C 48.270 118.058,47.577 117.821,46.988 117.537 C 46.399 117.252,45.713 117.015,45.464 117.010 C 45.215 117.005,44.946 116.895,44.865 116.764 C 44.784 116.633,44.280 116.444,43.745 116.344 C 43.210 116.244,42.576 116.054,42.337 115.923 C 41.760 115.607,39.666 115.140,37.349 114.810 C 36.319 114.663,35.266 114.434,35.010 114.300 C 33.069 113.283,17.231 115.434,16.644 116.795 C 16.595 116.908,16.353 117.001,16.105 117.001 C 15.857 117.001,15.205 117.242,14.656 117.537 C 14.106 117.831,13.475 118.072,13.254 118.072 C 13.033 118.072,12.851 118.171,12.851 118.293 C 12.851 118.540,10.684 119.679,10.212 119.679 C 10.044 119.679,9.906 119.799,9.906 119.946 C 9.906 120.094,9.726 120.214,9.505 120.214 C 9.284 120.214,9.103 120.335,9.103 120.482 C 9.103 120.629,8.940 120.750,8.741 120.750 C 8.388 120.750,7.990 120.947,4.150 123.029 C 1.268 124.591,1.214 124.622,1.071 124.785 C 0.997 124.870,0.726 125.016,0.469 125.112 C 0.053 125.265,0.000 125.707,0.000 129.033 C 0.000 133.364,-0.340 133.136,3.213 131.191 C 4.465 130.506,5.669 129.863,5.890 129.762 C 6.111 129.662,6.653 129.341,7.095 129.050 C 7.537 128.758,8.079 128.434,8.300 128.330 C 8.521 128.225,8.822 128.037,8.969 127.911 C 9.353 127.584,11.761 126.313,14.859 124.803 C 18.580 122.989,19.428 122.624,19.920 122.624 C 20.155 122.624,20.348 122.511,20.348 122.372 C 20.348 122.234,20.890 122.040,21.553 121.940 C 22.216 121.841,22.758 121.663,22.758 121.544 C 22.758 121.425,23.571 121.243,24.565 121.140 C 25.559 121.037,26.513 120.840,26.685 120.702 C 27.144 120.336,33.782 120.605,36.278 121.092 C 39.109 121.644,41.066 122.151,41.232 122.376 C 41.305 122.476,41.878 122.644,42.503 122.748 C 43.129 122.853,43.641 123.049,43.641 123.183 C 43.641 123.317,43.852 123.428,44.110 123.429 C 44.367 123.430,44.902 123.599,45.297 123.805 C 45.692 124.011,46.384 124.261,46.836 124.360 C 47.288 124.459,47.657 124.642,47.657 124.766 C 47.657 124.890,48.019 125.070,48.461 125.167 C 48.902 125.264,49.264 125.455,49.264 125.590 C 49.264 125.726,49.403 125.837,49.574 125.837 C 49.929 125.837,53.879 127.752,54.086 128.024 C 54.161 128.123,54.552 128.287,54.956 128.388 C 55.359 128.489,55.689 128.680,55.689 128.811 C 55.689 128.942,55.862 129.050,56.072 129.050 C 56.282 129.050,56.615 129.200,56.812 129.384 C 57.009 129.568,57.641 129.960,58.217 130.254 C 58.793 130.549,59.400 130.910,59.565 131.058 C 59.845 131.307,61.169 132.063,63.052 133.047 C 63.494 133.278,63.917 133.548,63.992 133.647 C 64.067 133.746,64.459 133.909,64.862 134.010 C 65.266 134.112,65.596 134.302,65.596 134.433 C 65.596 134.565,65.783 134.672,66.012 134.672 C 66.241 134.672,66.994 134.920,67.685 135.222 C 69.861 136.174,69.983 136.221,71.417 136.661 C 72.190 136.898,73.394 137.166,74.095 137.257 C 74.795 137.349,75.533 137.554,75.735 137.713 C 76.247 138.119,86.554 138.109,87.050 137.703 C 87.251 137.537,88.230 137.316,89.224 137.211 C 90.218 137.105,91.031 136.913,91.031 136.783 C 91.031 136.653,91.302 136.548,91.633 136.550 C 92.230 136.554,95.604 135.606,96.394 135.212 C 96.620 135.100,97.200 134.921,97.684 134.815 C 98.168 134.708,98.887 134.453,99.282 134.247 C 99.677 134.041,100.197 133.871,100.438 133.870 C 100.679 133.870,101.221 133.689,101.643 133.469 C 102.065 133.249,102.613 133.068,102.862 133.067 C 103.111 133.066,103.383 132.956,103.466 132.821 C 103.549 132.687,104.098 132.496,104.685 132.396 C 105.273 132.297,105.815 132.116,105.890 131.995 C 105.965 131.873,106.508 131.692,107.095 131.593 C 107.683 131.494,108.227 131.310,108.305 131.184 C 108.383 131.058,108.987 130.874,109.648 130.774 C 110.309 130.675,110.912 130.495,110.987 130.373 C 111.062 130.251,111.664 130.070,112.325 129.971 C 112.986 129.872,113.588 129.693,113.662 129.573 C 113.736 129.453,114.488 129.271,115.332 129.169 C 116.177 129.067,116.988 128.893,117.135 128.782 C 118.146 128.023,119.057 128.341,119.400 129.571 C 119.587 130.241,119.796 130.639,119.865 130.455 C 119.935 130.271,120.350 130.120,120.788 130.120 C 121.582 130.120,121.585 130.114,121.405 128.916 C 121.266 127.989,121.309 127.710,121.589 127.707 C 121.790 127.705,122.209 127.635,122.520 127.552 C 123.009 127.421,123.127 127.569,123.400 128.651 C 123.657 129.672,123.799 129.867,124.173 129.713 C 124.426 129.609,124.848 129.462,125.112 129.387 C 125.517 129.270,125.564 129.065,125.413 128.057 C 125.127 126.153,126.582 126.413,127.075 128.354 C 127.258 129.075,127.567 129.770,127.760 129.897 C 128.179 130.173,131.483 129.896,131.847 129.555 C 132.566 128.883,133.601 129.296,133.601 130.254 C 133.601 132.539,136.423 136.589,138.458 137.224 C 138.805 137.333,139.176 137.556,139.282 137.720 C 139.410 137.919,140.768 138.011,143.347 137.995 L 147.220 137.972 147.392 138.665 C 147.939 140.858,152.110 143.092,152.992 141.665 C 153.073 141.535,154.074 141.342,155.217 141.236 C 156.360 141.129,157.416 140.965,157.564 140.869 C 157.711 140.774,158.795 140.550,159.973 140.371 C 162.123 140.045,165.405 139.483,168.125 138.976 C 168.927 138.826,169.589 138.730,169.597 138.763 C 170.518 142.522,175.355 144.873,178.744 143.207 C 180.108 142.536,180.991 141.812,180.991 141.365 C 180.991 141.218,181.089 141.098,181.209 141.098 C 182.246 141.098,182.833 136.965,182.222 133.969 C 182.015 132.957,181.647 130.924,181.403 129.451 C 181.159 127.979,180.796 125.810,180.596 124.632 C 180.397 123.454,180.035 121.285,179.793 119.813 C 179.551 118.340,179.188 116.171,178.986 114.993 C 178.785 113.815,178.421 111.647,178.178 110.174 C 177.935 108.701,177.576 106.593,177.381 105.489 C 177.186 104.384,176.825 102.276,176.579 100.803 C 176.333 99.331,175.960 97.249,175.750 96.177 C 175.540 95.105,175.368 93.874,175.368 93.442 C 175.368 89.505,170.511 86.340,166.198 87.467 M217.294 90.964 C 217.185 91.074,216.111 91.311,214.907 91.489 C 213.703 91.667,211.573 92.005,210.174 92.239 C 208.775 92.474,206.667 92.810,205.489 92.986 C 204.311 93.162,203.226 93.382,203.079 93.474 C 202.932 93.567,201.968 93.725,200.937 93.826 C 196.721 94.239,195.177 95.789,196.092 98.693 C 196.342 99.485,196.652 100.134,196.782 100.134 C 196.911 100.134,197.223 100.340,197.476 100.593 C 197.975 101.093,201.392 101.174,201.980 100.700 C 202.142 100.569,203.179 100.374,204.284 100.268 C 205.388 100.161,206.412 99.981,206.560 99.866 C 206.707 99.751,207.822 99.572,209.038 99.466 C 210.253 99.361,211.306 99.181,211.376 99.067 C 211.447 98.953,212.530 98.774,213.784 98.669 C 215.037 98.565,216.130 98.370,216.213 98.236 C 216.296 98.102,216.831 97.992,217.401 97.992 C 219.908 97.992,219.882 98.079,218.978 92.838 C 218.624 90.781,218.076 90.171,217.294 90.964 M221.448 116.710 C 221.244 116.839,220.159 117.031,219.039 117.135 C 217.918 117.239,216.881 117.402,216.734 117.497 C 216.586 117.593,215.502 117.815,214.324 117.991 C 201.845 119.860,200.268 120.444,200.268 123.200 C 200.268 125.558,201.428 126.640,203.957 126.640 C 205.003 126.640,205.926 126.530,206.009 126.396 C 206.092 126.262,207.185 126.067,208.439 125.963 C 209.692 125.858,210.775 125.679,210.846 125.565 C 210.916 125.451,211.969 125.271,213.185 125.166 C 214.400 125.060,215.515 124.880,215.663 124.766 C 215.810 124.651,216.834 124.470,217.938 124.364 C 219.043 124.258,220.067 124.080,220.214 123.970 C 220.361 123.859,221.255 123.691,222.201 123.597 C 224.292 123.389,224.148 123.546,223.845 121.798 C 223.706 121.001,223.446 119.475,223.266 118.407 C 222.927 116.392,222.532 116.023,221.448 116.710 M239.347 141.850 C 237.325 142.474,237.500 144.268,239.759 146.060 C 240.495 146.644,241.138 147.212,241.187 147.323 C 241.236 147.433,241.441 147.523,241.642 147.523 C 241.844 147.523,242.105 147.685,242.222 147.882 C 242.340 148.079,243.641 149.158,245.114 150.279 C 246.586 151.401,248.002 152.505,248.260 152.732 C 248.517 152.960,248.798 153.146,248.884 153.146 C 249.019 153.146,250.950 154.632,251.841 155.422 C 252.007 155.569,252.414 155.870,252.744 156.091 C 253.075 156.312,253.511 156.652,253.714 156.846 C 255.364 158.429,257.812 157.162,257.368 154.953 C 257.267 154.446,255.357 152.721,254.509 152.371 C 254.369 152.313,253.991 151.982,253.669 151.635 C 253.348 151.288,253.002 151.004,252.900 151.004 C 252.799 151.004,251.909 150.368,250.923 149.591 C 249.937 148.814,248.790 147.962,248.376 147.699 C 247.961 147.435,247.414 147.017,247.160 146.769 C 246.391 146.019,244.232 144.311,244.052 144.311 C 243.959 144.311,243.618 144.039,243.294 143.708 C 241.925 142.309,240.315 141.551,239.347 141.850 M225.057 154.237 C 224.225 155.227,224.219 155.410,224.978 156.669 C 226.005 158.372,229.545 163.450,229.770 163.543 C 229.889 163.592,229.987 163.776,229.987 163.952 C 229.987 165.087,232.223 165.752,233.271 164.928 C 234.118 164.261,234.339 162.361,233.601 162.078 C 233.380 161.993,233.199 161.766,233.199 161.573 C 233.199 161.380,233.109 161.183,232.999 161.133 C 232.705 161.003,231.593 159.370,231.593 159.069 C 231.593 158.928,231.493 158.773,231.371 158.724 C 231.248 158.675,230.505 157.671,229.718 156.493 C 227.484 153.145,226.413 152.627,225.057 154.237 M172.155 155.982 C 171.759 156.240,170.908 157.581,170.071 159.266 C 169.293 160.833,168.225 162.898,167.698 163.855 C 167.171 164.813,165.911 167.209,164.897 169.182 C 163.884 171.154,162.951 172.901,162.824 173.064 C 161.811 174.370,162.117 176.317,163.428 176.914 C 164.547 177.424,165.464 176.791,166.513 174.785 C 167.000 173.854,167.824 172.309,168.344 171.352 C 168.863 170.395,170.095 168.046,171.081 166.131 C 172.067 164.217,173.444 161.580,174.141 160.273 C 175.429 157.855,175.513 157.298,174.735 156.293 C 174.212 155.616,172.952 155.465,172.155 155.982 M208.865 160.559 C 207.435 161.147,207.127 162.639,207.883 165.304 C 208.096 166.054,208.466 167.631,208.705 168.809 C 208.944 169.987,209.303 171.673,209.502 172.557 C 209.702 173.440,210.072 175.127,210.323 176.305 C 210.575 177.483,210.946 179.068,211.147 179.827 C 211.348 180.586,211.513 181.443,211.513 181.732 C 211.513 183.367,213.828 184.298,214.993 183.133 C 215.812 182.314,215.757 181.692,214.321 175.636 C 214.129 174.826,213.769 173.199,213.520 172.021 C 213.272 170.843,212.910 169.157,212.716 168.273 C 212.522 167.390,212.179 165.823,211.953 164.793 C 211.728 163.762,211.475 162.617,211.392 162.249 C 211.097 160.942,209.892 160.137,208.865 160.559 M189.759 161.649 C 189.354 161.900,189.023 162.252,189.023 162.431 C 189.023 162.610,188.847 164.119,188.632 165.783 C 187.683 173.135,187.995 174.944,190.184 174.779 C 191.613 174.670,192.236 173.548,192.236 171.078 C 192.236 170.113,192.413 167.895,192.629 166.149 C 193.061 162.666,192.846 161.673,191.587 161.335 C 190.764 161.114,190.567 161.148,189.759 161.649 " stroke="none" fill="#000000" fill-rule="evenodd"></path></g></svg>